<?xml version="1.0" encoding="UTF-8"?>
<svg xmlns="http://www.w3.org/2000/svg" xmlns:xlink="http://www.w3.org/1999/xlink" width="44px" height="44px" viewBox="0 0 44 44" version="1.1">
<g id="surface1">
<path style=" stroke:none;fill-rule:nonzero;fill:rgb(34.509804%,33.72549%,33.72549%);fill-opacity:1;" d="M 19.144531 0.601562 C 14.25 1.261719 10.332031 3.214844 6.65625 6.914062 C 2.371094 11.148438 0.335938 16.050781 0.304688 22.03125 C 0.304688 30.324219 4.800781 37.597656 12.246094 41.296875 C 15.558594 42.949219 18.261719 43.578125 22.210938 43.578125 C 30.417969 43.578125 37.984375 39.011719 41.628906 31.828125 C 43.847656 27.53125 44.546875 21.308594 43.363281 16.832031 C 42.664062 14.246094 40.777344 10.488281 39.046875 8.355469 C 34.582031 2.765625 26.527344 -0.359375 19.144531 0.601562 Z M 25.128906 6.761719 C 26.375 9.078125 27.652344 12.324219 27.652344 13.132812 C 27.652344 13.433594 26.679688 13.523438 23.304688 13.523438 L 18.960938 13.523438 L 18.050781 12.230469 L 17.136719 10.96875 L 17.867188 9.316406 C 18.261719 8.414062 19.082031 6.882812 19.660156 5.921875 L 20.722656 4.175781 L 22.304688 4.269531 L 23.855469 4.359375 Z M 15.496094 5.5 C 15.496094 5.53125 15.042969 6.640625 14.464844 7.933594 C 13.644531 9.828125 13.21875 10.398438 12.519531 10.699219 C 12.03125 10.878906 11.242188 11.539062 10.757812 12.140625 C 9.9375 13.164062 9.785156 13.222656 8.113281 13.222656 L 6.351562 13.222656 L 6.867188 12.230469 C 7.65625 10.730469 11.210938 7.484375 13.21875 6.402344 C 14.859375 5.53125 15.496094 5.257812 15.496094 5.5 Z M 31.175781 6.492188 C 33.210938 7.695312 35.765625 10.039062 37.101562 11.933594 C 37.589844 12.621094 37.984375 13.253906 37.984375 13.375 C 37.984375 13.464844 36.585938 13.496094 34.882812 13.464844 L 31.785156 13.375 L 30.691406 10.21875 C 30.082031 8.476562 29.445312 6.761719 29.230469 6.402344 C 28.503906 5.078125 28.804688 5.078125 31.175781 6.492188 Z M 10.96875 17.824219 C 11.394531 18.363281 11.515625 19.414062 11.578125 22.78125 L 11.699219 27.050781 L 4.617188 27.050781 L 4.285156 25.546875 C 3.859375 23.59375 3.859375 20.585938 4.285156 18.632812 L 4.617188 17.132812 L 7.535156 17.132812 C 10.242188 17.160156 10.515625 17.191406 10.96875 17.824219 Z M 28.683594 17.613281 C 28.777344 17.882812 28.867188 19.535156 28.867188 21.277344 L 28.835938 24.496094 L 27.683594 25.035156 C 27.042969 25.304688 26.34375 25.878906 26.132812 26.296875 L 25.738281 27.050781 L 15.589844 27.050781 L 15.375 25.90625 C 15.285156 25.304688 15.195312 23.621094 15.195312 22.179688 L 15.195312 19.535156 L 16.410156 18.933594 C 17.046875 18.605469 17.746094 18.0625 17.929688 17.730469 C 18.230469 17.160156 18.566406 17.132812 23.367188 17.132812 C 27.773438 17.132812 28.53125 17.191406 28.683594 17.613281 Z M 39.867188 18.183594 C 40.203125 19.324219 40.203125 24.433594 39.867188 25.847656 L 39.625 26.898438 L 36.796875 26.988281 C 34.03125 27.078125 33.972656 27.050781 33.335938 26.238281 C 32.726562 25.515625 32.636719 24.945312 32.515625 21.277344 L 32.363281 17.101562 L 35.976562 17.191406 L 39.625 17.28125 Z M 13.066406 32.789062 C 13.429688 33.960938 14.039062 35.675781 14.464844 36.578125 C 14.859375 37.507812 15.195312 38.289062 15.195312 38.351562 C 15.195312 39.039062 11.394531 36.757812 9.480469 34.921875 C 8.691406 34.140625 7.597656 32.878906 7.050781 32.066406 L 6.046875 30.65625 L 12.398438 30.65625 Z M 26.222656 31.707031 L 27.042969 32.730469 L 26.4375 34.324219 C 26.101562 35.195312 25.3125 36.785156 24.675781 37.867188 L 23.550781 39.824219 L 21.96875 39.914062 L 20.390625 40.003906 L 19.476562 38.410156 C 18.355469 36.488281 16.773438 32.820312 16.53125 31.558594 L 16.347656 30.65625 L 25.371094 30.65625 Z M 37.496094 31.617188 C 36.644531 33.242188 32.816406 36.757812 30.75 37.839844 C 29.6875 38.378906 28.777344 38.769531 28.714844 38.710938 C 28.65625 38.648438 29.082031 37.417969 29.71875 35.976562 C 30.597656 33.902344 30.996094 33.300781 31.632812 33.089844 C 32.089844 32.941406 32.847656 32.339844 33.304688 31.738281 C 34.15625 30.714844 34.277344 30.65625 36.097656 30.65625 L 38.015625 30.65625 Z M 37.496094 31.617188 "/>
</g>
</svg>
